<svg id="图层_1" data-name="图层 1" xmlns="http://www.w3.org/2000/svg" viewBox="0 0 359 23"><defs><style>.cls-1{isolation:isolate;}.cls-2{fill:#4d4e4e;}</style></defs><title>p0-lab2</title><g id="Page-1"><g id="iPhone-6"><g id="讯飞输入法_你的手机必备输入法" data-name="讯飞输入法，你的手机必备输入法" class="cls-1"><g class="cls-1"><path class="cls-2" d="M24,19q1.48-1.06,2.75-1.93a10.72,10.72,0,0,0,.3,1.24,31.9,31.9,0,0,0-2.92,2,10,10,0,0,0-1,1l-0.9-.9a3.07,3.07,0,0,0,.68-2.08v-8H20.5V9.18H24V19ZM24,6.47q-1.3-1.6-2.83-3.24l0.88-.67Q23.5,4,25,5.65Zm1.92-2.25V3.15H36.82V8.9a70.07,70.07,0,0,0,.26,7.55,7.47,7.47,0,0,0,1,3.33,0.78,0.78,0,0,0,.71.5,0.74,0.74,0,0,0,.45-0.73q0.18-1.25.32-3.45a9.18,9.18,0,0,0,1,.31q-0.16,2.15-.34,3.38Q40,21.65,38.8,21.7A2.1,2.1,0,0,1,37,20.3a9.61,9.61,0,0,1-1-3.67,66.57,66.57,0,0,1-.27-7.41v-5h-5v6.84h3.8v1.06h-3.8v9.76H29.56V12.12H25.69V11.06h3.87V4.22H25.93Z"/><path class="cls-2" d="M60.24,16a9.25,9.25,0,0,0,1.09.44,18.17,18.17,0,0,1-.58,2.91A2.52,2.52,0,0,1,58,21.28a4.49,4.49,0,0,1-2.71-.9Q52,18.22,51.86,11.2q-0.05-1.39,0-5.78V4.71H41.7V3.57H53Q53,4,53,5.22q0,0.94,0,2.24,0,1.07,0,1.78Q56.13,7,58.81,4.77l1,0.82q-2.46,1.88-5.89,4.28,4,1.88,6.43,3.18l-0.74,1Q57.32,12.76,53,10.5q0,0.11,0,.33t0,0.49q0.14,6.09,2.83,8a3.49,3.49,0,0,0,2.18.78,1.6,1.6,0,0,0,1.68-1.32A24.78,24.78,0,0,0,60.24,16Z"/><path class="cls-2" d="M62.68,5.19h2.05Q65,3.93,65.47,2.1l1,0.21L65.93,4.54l-0.16.65h3.71v1h-4q-0.72,2.61-1.66,5.55h2.25V8.44h1V11.7H69v1H67.09v3.65l0.27,0q1.25-.17,1.92-0.3a8,8,0,0,0-.09,1l-1,.13-1.11.15v4.54h-1V17.43L62.74,18l-0.17-1,1.66-.22,1.85-.25v-3.8H62.82v-1q0.83-2.46,1.64-5.49H62.68v-1ZM81.82,8.7a15.43,15.43,0,0,1-6.21-5.07,19.21,19.21,0,0,1-6.17,5.42,8.2,8.2,0,0,0-.72-0.9,16.11,16.11,0,0,0,6.75-6.22L76.63,2.1l-0.17.29-0.25.38a14,14,0,0,0,6.22,4.94A8.87,8.87,0,0,0,81.82,8.7ZM71.1,21.82h-1V10.1h5.13v9.66a1.63,1.63,0,0,1-1.85,1.87l-0.59,0H72.1a9.21,9.21,0,0,0-.18-1l0.57,0H73.2a0.86,0.86,0,0,0,1-1v-2.4H71.1v4.6ZM71.1,11v2.14H74.2V11H71.1Zm0,3.07v2.18H74.2V14.11H71.1Zm1.28-6.89h6.44v1H72.38v-1Zm4.85,3.64h1v7.2h-1v-7.2Zm3.09-1.1h1v9.52q0.15,2.3-2.31,2.29l-0.74,0H77.43a6.45,6.45,0,0,0-.18-1.09c0.22,0,.46,0,0.74.05h1a1.27,1.27,0,0,0,1-.31,1.68,1.68,0,0,0,.27-1.14V9.76Z"/><path class="cls-2" d="M89.45,3.09l0.86-.72q2.63,2,4.87,7.09Q98.38,17,103.4,20a14.58,14.58,0,0,0-1,1.15q-5.1-3.56-8.22-11-0.56-1.2-.88-1.83a24.27,24.27,0,0,1-8.83,13,10.1,10.1,0,0,0-.92-1.06,22.4,22.4,0,0,0,9-13.37A12,12,0,0,0,89.45,3.09Z"/><path class="cls-2" d="M107.78,11.26q-1.51-1.37-3.16-2.63l0.74-.76q1.72,1.23,3.26,2.5Zm-2.88,9.95q1.37-3.57,2.54-7.56a7.78,7.78,0,0,0,1.16.5q-1,2.77-2.44,7.5ZM108.53,6q-1.74-1.69-3.09-2.8l0.82-.71q1.47,1.2,3.17,2.71Zm1.32,5.65h6.67V7h-5.69V5.92h5.69V2.06h1.13V5.92h5.77V7h-5.77v4.71h6.75v1H116l1.18,0.42a56.33,56.33,0,0,1-4.85,6.41l1.39-.05q5.21-.22,7.46-0.27-1.06-1.44-2.67-3.49l0.94-.58q1.66,2,4.52,5.85l-1,.68q-0.52-.78-1-1.48-4.47.12-8.86,0.38a12.65,12.65,0,0,0-2.12.24l-0.62-1.18a6.23,6.23,0,0,0,1.52-1.26,30.69,30.69,0,0,0,4.05-5.67h-6v-1Z"/><path class="cls-2" d="M134.36,22H133.5l1.66-5.26h1.13Z"/><path class="cls-2" d="M147,13.31q-0.27-.74-0.5-1.3a32.91,32.91,0,0,0,4.87-9.95l1.18,0.38a47.68,47.68,0,0,1-1.91,4.7V21.82h-1.12V9.34A29.53,29.53,0,0,1,147,13.31ZM152.7,18a47,47,0,0,0,3-6.7l1.06,0.38q-1.28,3.35-3,6.84A7.85,7.85,0,0,0,152.7,18Zm10.86-8.23L165,6.41h-9q-1,2-2.2,3.86a7.56,7.56,0,0,0-1-.67,36.73,36.73,0,0,0,3.85-7.41l1.14,0.34Q157.12,4,156.46,5.35h9.64V6.49l-1.43,3.61A9,9,0,0,0,163.55,9.76ZM159.06,8.4h1.13V18.92a2.22,2.22,0,0,1-2.53,2.61l-2.2,0q-0.11-.64-0.26-1.17,1,0.06,2.23.06a1.37,1.37,0,0,0,1.64-1.58V8.4Zm6.3,9.94q-1.51-3.55-3.09-6.63l1-.44q1.64,3.23,3.18,6.55Z"/><path class="cls-2" d="M168.4,5.48h2.14q0.6-1.91,1-3.35l1.14,0.25-0.42,1.29q-0.4,1.26-.58,1.81h4.17V21.4h-1.09V19.72H169.5v1.82h-1.1V5.48Zm1.1,1V12h5.23V6.49H169.5Zm0,6.55v5.69h5.23V13H169.5ZM177.64,10a7.06,7.06,0,0,0-1-.62,30.39,30.39,0,0,0,3.15-7.22l1.12,0.29q-0.55,1.63-1.14,3h6.79q-0.12,7.18-.38,12.5,0,3.45-3.51,3.43l-1.39,0h-1.89a10.54,10.54,0,0,0-.27-1.16q1.61,0.06,3.35.06,2.59,0.13,2.61-2.49,0.18-3.31.34-11.32h-6.09A26.38,26.38,0,0,1,177.64,10Zm0.88,0.92,0.84-.59q1.43,1.75,3.32,4.31l-0.92.7Q180.07,12.86,178.53,10.88Z"/><path class="cls-2" d="M206.48,4.09q-3.65.21-7.35,0.36V8.68h7.49v1h-7.49V14h9.27v1h-9.27v3.91q0.13,2.53-2.69,2.5l-3.07,0a5,5,0,0,0-.21-1l-0.05-.18,1.3,0.05h1.8a2,2,0,0,0,1.39-.34,1.68,1.68,0,0,0,.37-1.29V15h-9.33V14H198V9.7H190.1v-1H198V4.49q-4.55.19-8,.26a6.35,6.35,0,0,0-.17-1.1q9.06-.12,16.43-0.63Z"/><path class="cls-2" d="M210,16.07a5.38,5.38,0,0,0-.54-1.12,22,22,0,0,0,3.4-7.83H209.9v-1h3V2.1h1V6.15h2.86v1h-2.86v3.36l0.6-.62q1.9,1.72,2.67,2.5l-0.76.78q-1-1.06-2.5-2.46V21.74h-1V9.26A19.37,19.37,0,0,1,210,16.07Zm9.87-11.58v5.82a22,22,0,0,1-.73,6.87,11.5,11.5,0,0,1-3,4.57q-0.59-.55-1-0.84a10.4,10.4,0,0,0,3-4.19,20.39,20.39,0,0,0,.66-6.46V3.45h6.91V18.86q-0.05,1.22.86,1.14h0.42q1.08,0.06,1.24-1.32,0.14-1,.29-3.24a8.8,8.8,0,0,0,1.06.4q-0.15,2.07-.32,3.21-0.27,2.08-2.12,2h-0.75q-1.84,0-1.79-2.06V4.49h-4.68Z"/><path class="cls-2" d="M232.88,7.9L234,8.21q-1,3.46-2.21,6.93a7.92,7.92,0,0,0-1.13-.44Q231.92,11.43,232.88,7.9ZM236,5.55h1.13v9.68a38.39,38.39,0,0,0,9.6-11.49l1.1,0.57a40.87,40.87,0,0,1-10.7,12.37v1.1a1.94,1.94,0,0,0,.45,1.51,2.34,2.34,0,0,0,1.61.4h4.13q2.19,0.12,2.38-1.68,0.17-1.07.29-2.52a10.73,10.73,0,0,0,1.2.36q-0.21,1.61-.44,2.73-0.4,2.3-3.25,2.24h-4.6q-3,.07-2.89-2.86V17.51q-1.76,1.24-4.35,2.75-0.39-.53-0.78-1A41.64,41.64,0,0,0,236,16.09V5.55Zm2.31-2.76,0.84-.71q1.55,1.49,3.59,3.63l-0.92.82Q240,4.43,238.28,2.79Zm8.17,6.93,1-.48q1.58,2.88,2.85,5.59l-1.11.54Q247.9,12.41,246.45,9.72Z"/><path class="cls-2" d="M270.78,11.78a34.14,34.14,0,0,1-9-2.18A48.11,48.11,0,0,1,252,12.2q-0.24-.56-0.52-1.1a43,43,0,0,0,9-2.14,14,14,0,0,1-4.16-3.49,26.78,26.78,0,0,1-3.47,3.24,7,7,0,0,0-.78-0.78,21,21,0,0,0,5.59-6l1,0.46q-0.69,1-1.06,1.5h11v1A19.76,19.76,0,0,1,263.12,9a28.55,28.55,0,0,0,8.23,1.62A12.51,12.51,0,0,0,270.78,11.78Zm-16.51.67h14.41v9.37h-1.09V20.9H255.37v0.92h-1.1V12.45Zm1.1,1v2.83H261V13.4h-5.59Zm0,3.73V20H261V17.14h-5.59ZM267.23,4.83H257.09a13.9,13.9,0,0,0,4.73,3.61A19.85,19.85,0,0,0,267.23,4.83Zm0.36,8.57H262v2.83h5.59V13.4ZM262,17.14V20h5.59V17.14H262Z"/><path class="cls-2" d="M272.68,5.19h2.05q0.32-1.26.74-3.09l1,0.21-0.58,2.24q-0.11.43-.16,0.65h3.71v1h-4q-0.72,2.61-1.66,5.55h2.25V8.44h1V11.7H279v1h-1.91v3.65l0.27,0q1.25-.17,1.92-0.3a8.21,8.21,0,0,0-.09,1l-1,.13-1.11.15v4.54h-1V17.43l-3.33.52-0.17-1,1.66-.22,1.85-.25v-3.8h-3.25v-1q0.83-2.46,1.64-5.49h-1.78v-1ZM291.82,8.7a15.42,15.42,0,0,1-6.21-5.07,19.22,19.22,0,0,1-6.17,5.42,8.29,8.29,0,0,0-.72-0.9,16.11,16.11,0,0,0,6.75-6.22l1.17,0.17-0.17.29-0.25.38a14,14,0,0,0,6.22,4.94A8.87,8.87,0,0,0,291.82,8.7ZM281.1,21.82h-1V10.1h5.13v9.66a1.63,1.63,0,0,1-1.85,1.87l-0.59,0H282.1a9.2,9.2,0,0,0-.18-1l0.57,0h0.71a0.86,0.86,0,0,0,1-1v-2.4H281.1v4.6Zm0-10.78v2.14h3.11V11H281.1Zm0,3.07v2.18h3.11V14.11H281.1Zm1.28-6.89h6.44v1h-6.44v-1Zm4.85,3.64h1v7.2h-1v-7.2Zm3.09-1.1h1v9.52q0.15,2.3-2.31,2.29l-0.74,0h-0.84a6.54,6.54,0,0,0-.18-1.09c0.22,0,.46,0,0.74.05h1a1.27,1.27,0,0,0,1-.31,1.68,1.68,0,0,0,.27-1.14V9.76Z"/><path class="cls-2" d="M299.45,3.09l0.86-.72q2.63,2,4.87,7.09,3.2,7.59,8.21,10.5a14.57,14.57,0,0,0-1,1.15q-5.1-3.56-8.22-11-0.56-1.2-.88-1.83a24.27,24.27,0,0,1-8.83,13,10.22,10.22,0,0,0-.92-1.06,22.4,22.4,0,0,0,9-13.37A12,12,0,0,0,299.45,3.09Z"/><path class="cls-2" d="M317.78,11.26q-1.51-1.37-3.16-2.63l0.74-.76q1.72,1.23,3.26,2.5Zm-2.88,9.95q1.37-3.57,2.54-7.56a7.78,7.78,0,0,0,1.16.5q-1,2.77-2.44,7.5ZM318.53,6q-1.74-1.69-3.09-2.8l0.82-.71q1.47,1.2,3.17,2.71Zm1.32,5.65h6.66V7h-5.69V5.92h5.69V2.06h1.13V5.92h5.77V7h-5.77v4.71h6.75v1H326l1.18,0.42a56.44,56.44,0,0,1-4.85,6.41l1.39-.05q5.21-.22,7.46-0.27-1.06-1.44-2.67-3.49l0.94-.58q1.66,2,4.52,5.85l-1,.68q-0.52-.78-1-1.48-4.47.12-8.86,0.38a12.64,12.64,0,0,0-2.12.24l-0.62-1.18a6.23,6.23,0,0,0,1.52-1.26,30.65,30.65,0,0,0,4-5.67h-6v-1Z"/></g></g></g></g></svg>