<?xml version="1.0" encoding="utf-8"?>
<!-- Generator: Adobe Illustrator 17.0.0, SVG Export Plug-In . SVG Version: 6.00 Build 0)  -->
<!DOCTYPE svg PUBLIC "-//W3C//DTD SVG 1.1//EN" "http://www.w3.org/Graphics/SVG/1.1/DTD/svg11.dtd">
<svg version="1.1" id="图层_1" xmlns="http://www.w3.org/2000/svg" xmlns:xlink="http://www.w3.org/1999/xlink" x="0px" y="0px"
	 width="288px" height="53.812px" viewBox="17.084 2.406 288 53.812" enable-background="new 17.084 2.406 288 53.812"
	 xml:space="preserve">
<g enable-background="new    ">
	<path d="M19.334,36.531c-0.627-0.873-1.125-1.688-1.5-2.438c3.375-5.625,5.812-11.561,7.312-17.812h-5.812v-2.25h6V4.844h2.438
		v9.188h5.812v2.25h-5.812v7.875l1.312-1.312c0.624,0.627,1.623,1.5,3,2.625c1.248,1.251,2.186,2.188,2.812,2.812l-1.688,1.688
		c-1.752-1.998-3.562-3.812-5.438-5.438v24.562h-2.438V20.969C24.083,26.845,22.082,32.031,19.334,36.531z M30.021,46.656
		c3.624-3.999,6-8.25,7.125-12.75c1.125-4.248,1.688-10.937,1.688-20.062V9.531h-4.125V7.094h22.5v3l-4.875,10.125h8.438v2.812
		c-2.127,6.375-4.752,11.502-7.875,15.375c2.124,2.25,5.748,4.813,10.875,7.688c-0.75,0.75-1.377,1.562-1.875,2.438
		c-4.5-2.877-8.001-5.625-10.5-8.25c-3.375,3.498-7.125,6.437-11.25,8.812c-0.252-0.252-0.75-0.814-1.5-1.688
		c0.498,0.624,0.375,0.437-0.375-0.562c4.875-2.502,8.687-5.312,11.438-8.438c-3.501-3.873-6.313-9.375-8.438-16.5
		c-0.126,11.127-3.126,19.939-9,26.438c-0.126-0.126-0.375-0.313-0.75-0.562C30.895,47.154,30.396,46.779,30.021,46.656z
		 M49.709,19.656l4.875-10.125H41.459v4.312v2.438c2.499,8.625,5.748,15.375,9.75,20.25c2.874-3.498,5.186-8.186,6.938-14.062
		h-8.438V19.656z"/>
	<path d="M86.646,44.969c8.748,0,17.124,0,25.125,0c-0.126,0.375-0.313,0.812-0.562,1.312c-0.126,0.624-0.252,1.061-0.375,1.312
		c-9.876,0-18.313-0.126-25.312-0.375c-5.001,0-8.938-1.813-11.812-5.438c-1.125,1.125-2.812,2.874-5.062,5.25
		c-0.375,0.375-0.627,0.624-0.75,0.75l-1.688-2.062c1.248-1.377,3.375-3.375,6.375-6v-16.5h-5.812v-2.25h8.25v18.562
		C77.646,43.158,81.52,44.969,86.646,44.969z M75.396,14.219c-0.627-0.75-0.814-0.999-0.562-0.75c-2.502-2.748-4.377-4.749-5.625-6
		l1.875-1.5c3.123,3.126,5.25,5.314,6.375,6.562L75.396,14.219z M81.771,17.219h12v-5.438H79.709v-2.25h14.062v-5.25h2.438v5.25
		h14.625v2.25H96.209v5.438h12.188v11.438H96.209v3.375l1.312-1.688c2.373,1.5,6.123,3.938,11.25,7.312
		c0.75,0.501,1.312,0.876,1.688,1.125l-1.5,2.062c-2.25-1.749-6.501-4.623-12.75-8.625v10.875h-2.438V30.906
		c-3.252,4.377-7.688,7.875-13.312,10.5c-0.126-0.123-0.313-0.375-0.562-0.75c-0.627-0.624-1.063-1.061-1.312-1.312
		c6-2.373,10.875-5.936,14.625-10.688H81.771V17.219z M84.209,19.469v7.125h9.562v-7.125H84.209z M105.959,19.469h-9.75v7.125h9.75
		V19.469z"/>
	<path d="M122.271,43.469c1.749-1.125,3.686-2.499,5.812-4.125c0.123,0.252,0.188,0.75,0.188,1.5c0.123,0.75,0.188,1.251,0.188,1.5
		c-3.126,1.749-5.938,3.624-8.438,5.625l-1.688-2.25c0.873-1.002,1.312-2.186,1.312-3.562V22.844h-5.25v-2.25h7.875V43.469z
		 M123.396,14.031c-2.001-2.25-4.312-4.562-6.938-6.938l1.875-1.688c3,2.751,5.373,5.001,7.125,6.75L123.396,14.031z M127.709,8.781
		v-2.25h30v2.25h-17.812l-1.125,6.562h15.562v9.938h5.438v2.25h-33.375v-2.25h8.25l1.312-7.875h-7.125v-2.062h7.5l1.125-6.562
		H127.709z M130.709,33.156h24.75v15.938h-2.438v-3h-19.688v3h-2.625V33.156z M133.334,35.406v8.438h19.688v-8.438H133.334z
		 M151.709,17.406h-13.312l-1.312,7.875h14.625V17.406z"/>
	<path d="M173.646,14.594l2.062-1.312c0.624,0.627,1.436,1.564,2.438,2.812c0.75,0.876,1.312,1.564,1.688,2.062l-2.062,1.312h12.188
		c1.5-2.124,2.936-4.248,4.312-6.375l2.438,1.5c-0.126,0.126-0.313,0.375-0.562,0.75c-1.377,1.752-2.502,3.126-3.375,4.125h14.625
		v2.438h-44.812v-2.438h15C176.333,17.719,175.021,16.094,173.646,14.594z M182.459,4.844l2.438-0.938
		c0.375,0.501,0.873,1.312,1.5,2.438c0.624,1.002,1.061,1.813,1.312,2.438l-2.062,0.938h19.5v2.25h-40.125v-2.25h20.062
		c-0.375-0.873-1.002-2.062-1.875-3.562C182.834,5.532,182.582,5.095,182.459,4.844z M168.396,26.969h33v21.938h-2.625v-2.812
		h-27.75v3h-2.625V26.969z M171.021,29.219v6.562h27.75v-6.562H171.021z M171.021,37.844v6h27.75v-6H171.021z"/>
	<path d="M210.584,11.406h4.688c0.249-0.75,0.562-1.937,0.938-3.562c0.375-1.5,0.624-2.625,0.75-3.375l2.438,0.375
		c-0.501,2.25-1.063,4.438-1.688,6.562h8.438v2.25h-9.188c-0.627,2.625-1.688,6.313-3.188,11.062
		c-0.252,0.75-0.439,1.312-0.562,1.688h5.25v-7.5h2.25v7.5h4.312v2.062h-4.312v8.438c0.624-0.123,1.5-0.249,2.625-0.375
		c1.125-0.249,1.937-0.375,2.438-0.375c-0.126,0.375-0.188,1.125-0.188,2.25c-1.752,0.126-3.375,0.375-4.875,0.75v9.938h-2.25v-9.75
		c-2.502,0.501-5.062,0.938-7.688,1.312l-0.375-2.438c1.5-0.123,3.873-0.375,7.125-0.75c-2.127,0.252-1.813,0.188,0.938-0.188
		v-8.812h-7.5v-2.25c0.999-2.874,2.25-7.061,3.75-12.562h-4.125V11.406z M254.459,19.469c-6.252-3-11.001-6.873-14.25-11.625
		c-3.126,4.626-7.813,8.751-14.062,12.375c-0.501-0.624-1.063-1.312-1.688-2.062c7.125-3.75,12.249-8.438,15.375-14.062l2.625,0.375
		c-0.252,0.375-0.562,0.876-0.938,1.5c3.624,5.127,8.373,8.877,14.25,11.25c-0.126,0.252-0.313,0.562-0.562,0.938
		C254.834,18.657,254.582,19.094,254.459,19.469z M229.896,49.094h-2.25V22.656h11.625v21.75c0.123,2.748-1.312,4.187-4.312,4.312
		c-1.002,0-1.939,0-2.812,0c0-0.75-0.126-1.5-0.375-2.25c0.999,0,1.937,0,2.812,0c1.749,0.123,2.561-0.688,2.438-2.438v-5.062
		h-7.125V49.094z M229.896,24.906v4.875h7.125v-4.875H229.896z M229.896,31.844v5.062h7.125v-5.062H229.896z M232.709,16.094h14.812
		v2.25h-14.812V16.094z M250.896,21.906h2.438v21.75c0.123,3.249-1.688,4.875-5.438,4.875c-1.251,0-2.438,0-3.562,0
		c0-0.75-0.126-1.564-0.375-2.438c1.248,0.123,2.625,0.188,4.125,0.188c1.998,0.123,2.936-0.876,2.812-3V21.906z M243.959,24.344
		h2.25v16.5h-2.25V24.344z"/>
	<path d="M271.896,6.719l1.875-1.688c3.999,3,7.688,8.376,11.062,16.125c4.875,11.625,11.186,19.5,18.938,23.625
		c-0.75,0.999-1.5,1.937-2.25,2.812c-7.752-5.25-14.001-13.562-18.75-24.938c-0.126-0.375-0.375-0.873-0.75-1.5
		c-0.126-0.498-0.562-1.374-1.312-2.625c-3.75,12.501-10.5,22.251-20.25,29.25c-0.75-1.125-1.438-1.875-2.062-2.25
		c10.125-6.75,16.998-16.875,20.625-30.375C276.895,11.532,274.521,8.719,271.896,6.719z"/>
</g>
</svg>
