<?xml version="1.0" encoding="utf-8"?>
<!-- Generator: Adobe Illustrator 17.0.0, SVG Export Plug-In . SVG Version: 6.00 Build 0)  -->
<!DOCTYPE svg PUBLIC "-//W3C//DTD SVG 1.1//EN" "http://www.w3.org/Graphics/SVG/1.1/DTD/svg11.dtd">
<svg version="1.1" id="图层_1" xmlns="http://www.w3.org/2000/svg" xmlns:xlink="http://www.w3.org/1999/xlink" x="0px" y="0px"
	 width="288px" height="53.812px" viewBox="7.084 2.156 288 53.812" enable-background="new 7.084 2.156 288 53.812"
	 xml:space="preserve">
<g enable-background="new    ">
	<path d="M15.521,24.844c-2.376-1.998-4.752-3.938-7.125-5.812l1.688-1.875c2.499,1.875,4.937,3.814,7.312,5.812L15.521,24.844z
		 M9.521,47.344c1.875-4.998,3.624-10.623,5.25-16.875c0.249,0.126,0.686,0.313,1.312,0.562c0.498,0.252,0.873,0.439,1.125,0.562
		c-0.501,1.626-1.251,4.189-2.25,7.688c-1.5,4.374-2.438,7.374-2.812,9L9.521,47.344z M17.021,12.844
		c-0.75-0.624-1.875-1.623-3.375-3c-1.752-1.5-3-2.561-3.75-3.188l1.875-1.688c2.25,1.752,4.623,3.75,7.125,6L17.021,12.844z
		 M25.084,28.406h2.625c0,6-0.627,10.377-1.875,13.125c-1.002,2.625-3.126,5.124-6.375,7.5c-0.501-0.75-1.125-1.438-1.875-2.062
		c3.123-2.001,5.124-4.187,6-6.562C24.583,38.033,25.084,34.031,25.084,28.406z M49.646,27.281c-0.252-0.375-0.627-0.873-1.125-1.5
		c-0.627-0.75-1.063-1.248-1.312-1.5c-2.877,0.126-6.75,0.252-11.625,0.375c-4.002,0.252-7.063,0.375-9.188,0.375
		c-0.876,0-2.062,0.126-3.562,0.375c0.123,0,0,0-0.375,0l-1.125-2.625c0.999-0.498,1.998-1.125,3-1.875
		c2.748-2.373,5.438-5.186,8.062-8.438H20.584v-2.25h15.75c-0.876-1.875-1.813-3.624-2.812-5.25l2.25-1.125
		c0.498,0.876,1.187,2.062,2.062,3.562c0.375,0.876,0.686,1.5,0.938,1.875l-1.688,0.938h15.188v2.25H33.709l1.688,0.75
		c-3,3.252-6.188,6.375-9.562,9.375c6.999,0,13.5-0.188,19.5-0.562c-0.501-0.624-1.312-1.5-2.438-2.625
		c-1.002-1.125-1.813-1.937-2.438-2.438l2.062-1.5c1.998,2.001,4.811,5.062,8.438,9.188c0.375,0.375,0.686,0.688,0.938,0.938
		L49.646,27.281z M33.896,28.406h2.625v19.688h-2.625V28.406z M42.709,28.219h2.625v15.188c0,1.374,0.75,2.062,2.25,2.062h1.125
		c1.374,0,2.124-0.688,2.25-2.062c0.375-1.623,0.562-3.498,0.562-5.625c0.249,0,0.686,0.126,1.312,0.375
		c0.498,0.126,0.873,0.252,1.125,0.375c-0.126,2.001-0.313,3.814-0.562,5.438c-0.501,2.625-1.875,3.873-4.125,3.75h-2.25
		c-2.877,0-4.312-1.377-4.312-4.125V28.219z"/>
	<path d="M65.209,4.219h2.25v6.938h6.938v24.375h-6.938v13.125h-2.25V35.531h-4.688v2.438h-2.438V11.156h7.125V4.219z
		 M60.521,13.406v8.812h4.688v-8.812H60.521z M60.521,24.281v9h4.688v-9H60.521z M72.146,13.406h-4.688v8.812h4.688V13.406z
		 M67.459,33.281h4.688v-9h-4.688V33.281z M72.334,39.281c5.373-3.75,8.625-8.748,9.75-15h-5.062v-2.812L93.896,9.281h-16.5V6.844
		h20.062v2.812l-17.25,12.375h19.875c-0.126,3.876-0.313,9-0.562,15.375c-0.126,0.876-0.188,1.5-0.188,1.875
		c-0.126,6-2.502,8.812-7.125,8.438c-1.251,0.123-2.938,0.188-5.062,0.188c-0.126-0.501-0.252-1.125-0.375-1.875
		c-0.126-0.375-0.188-0.688-0.188-0.938c1.125,0.123,2.874,0.188,5.25,0.188c3.249,0.249,4.875-1.626,4.875-5.625
		c0.375-4.5,0.686-9.624,0.938-15.375h-5.25c-1.251,11.127-5.563,19.187-12.938,24.188c-0.252-0.375-0.688-0.814-1.312-1.312
		c-0.375-0.375-0.627-0.627-0.75-0.75c7.125-4.623,11.312-12,12.562-22.125h-5.438c-1.251,7.125-4.688,12.814-10.312,17.062
		C73.708,40.594,73.084,39.908,72.334,39.281z"/>
	<path d="M145.272,8.719c-1.626,0-4.19,0.126-7.688,0.375c-4.002,0.126-7.002,0.252-9,0.375v9.75h17.063v2.25h-17.063v9.75h21.188
		v2.438h-21.188v9c0.123,3.624-1.939,5.438-6.188,5.438c-2.625,0-4.939,0-6.938,0c-0.126-0.75-0.375-1.688-0.75-2.812
		c1.5,0.123,3.873,0.188,7.125,0.188c2.874,0.123,4.248-1.002,4.125-3.375v-8.438h-21.375v-2.438h21.375v-9.75h-18v-2.25h18V9.656
		c-6.627,0.126-12.75,0.313-18.375,0.562c0-0.873-0.126-1.688-0.375-2.438c13.875-0.249,26.373-0.75,37.5-1.5L145.272,8.719z"/>
	<path d="M152.397,35.906h33.562v2.438h-33.562V35.906z M154.459,6.656h41.438v7.875h-2.625V9.094h-36.188v5.438h-2.625V6.656z
		 M159.522,28.969l3.75-17.25h2.625l-1.125,5.438h27.75v2.438h-28.312l-1.5,6.938h30.938c-0.252,6.876-0.501,11.625-0.75,14.25
		c-0.126,4.749-3.064,7.125-8.812,7.125c-0.75,0-2.062,0-3.938,0c-2.127,0.123-3.688,0.188-4.688,0.188c0-1.125-0.188-2.127-0.562-3
		c2.25,0.123,5.186,0.188,8.812,0.188c4.125,0.123,6.249-1.438,6.375-4.688c0.249-1.623,0.498-4.937,0.75-9.938
		c0-0.75,0-1.312,0-1.688H159.522z"/>
	<path d="M200.584,11.156h4.688c0.249-0.75,0.562-1.937,0.938-3.562c0.375-1.5,0.624-2.625,0.75-3.375l2.438,0.375
		c-0.501,2.25-1.063,4.438-1.688,6.562h8.438v2.25h-9.188c-0.627,2.625-1.688,6.313-3.188,11.062
		c-0.252,0.75-0.439,1.312-0.562,1.688h5.25v-7.5h2.25v7.5h4.312v2.062h-4.312v8.438c0.624-0.123,1.5-0.249,2.625-0.375
		c1.125-0.249,1.937-0.375,2.438-0.375c-0.126,0.375-0.188,1.125-0.188,2.25c-1.752,0.126-3.375,0.375-4.875,0.75v9.938h-2.25v-9.75
		c-2.502,0.501-5.062,0.938-7.688,1.312l-0.375-2.438c1.5-0.123,3.873-0.375,7.125-0.75c-2.127,0.252-1.813,0.188,0.938-0.188
		v-8.812h-7.5v-2.25c0.999-2.874,2.25-7.061,3.75-12.562h-4.125V11.156z M244.459,19.219c-6.252-3-11.001-6.873-14.25-11.625
		c-3.126,4.626-7.813,8.751-14.062,12.375c-0.501-0.624-1.063-1.312-1.688-2.062c7.125-3.75,12.249-8.438,15.375-14.062l2.625,0.375
		c-0.252,0.375-0.562,0.876-0.938,1.5c3.624,5.127,8.373,8.877,14.25,11.25c-0.126,0.252-0.313,0.562-0.562,0.938
		C244.834,18.407,244.582,18.844,244.459,19.219z M219.897,48.844h-2.25V22.406h11.625v21.75c0.123,2.748-1.312,4.187-4.312,4.312
		c-1.002,0-1.939,0-2.812,0c0-0.75-0.126-1.5-0.375-2.25c0.999,0,1.937,0,2.812,0c1.749,0.123,2.561-0.688,2.438-2.438v-5.062
		h-7.125V48.844z M219.897,24.656v4.875h7.125v-4.875H219.897z M219.897,31.594v5.062h7.125v-5.062H219.897z M222.709,15.844h14.812
		v2.25h-14.812V15.844z M240.897,21.656h2.438v21.75c0.123,3.249-1.688,4.875-5.438,4.875c-1.251,0-2.438,0-3.562,0
		c0-0.75-0.126-1.564-0.375-2.438c1.248,0.123,2.625,0.188,4.125,0.188c1.998,0.123,2.936-0.876,2.812-3V21.656z M233.959,24.094
		h2.25v16.5h-2.25V24.094z"/>
	<path d="M261.897,6.469l1.875-1.688c3.999,3,7.688,8.376,11.062,16.125c4.875,11.625,11.186,19.5,18.938,23.625
		c-0.75,0.999-1.5,1.937-2.25,2.812c-7.752-5.25-14.001-13.562-18.75-24.938c-0.126-0.375-0.375-0.873-0.75-1.5
		c-0.126-0.498-0.562-1.374-1.312-2.625c-3.75,12.501-10.5,22.251-20.25,29.25c-0.75-1.125-1.438-1.875-2.062-2.25
		c10.125-6.75,16.998-16.875,20.625-30.375C266.895,11.282,264.522,8.469,261.897,6.469z"/>
</g>
</svg>
