<?xml version="1.0" encoding="utf-8"?>
<!-- Generator: Adobe Illustrator 17.0.0, SVG Export Plug-In . SVG Version: 6.00 Build 0)  -->
<!DOCTYPE svg PUBLIC "-//W3C//DTD SVG 1.1//EN" "http://www.w3.org/Graphics/SVG/1.1/DTD/svg11.dtd">
<svg version="1.1" id="图层_1" xmlns="http://www.w3.org/2000/svg" xmlns:xlink="http://www.w3.org/1999/xlink" x="0px" y="0px"
	 width="288px" height="53.812px" viewBox="17.084 1.156 288 53.812" enable-background="new 17.084 1.156 288 53.812"
	 xml:space="preserve">
<g enable-background="new    ">
	<path d="M39.771,26.281c-0.375-0.249-0.876-0.624-1.5-1.125c-3.126-2.499-5.563-4.312-7.312-5.438c-1.5,3.252-5.127,6.252-10.875,9
		c-0.375-0.75-0.876-1.5-1.5-2.25c6-2.25,9.562-5.25,10.688-9H19.146v-2.25h10.688c0.375-1.623,0.562-3.562,0.562-5.812h-6.188
		c-0.876,1.5-2.062,2.877-3.562,4.125c-0.375-0.375-0.938-0.873-1.688-1.5c3.123-2.874,5.312-6,6.562-9.375l2.062,0.562
		c-0.252,0.627-0.627,1.438-1.125,2.438c-0.375,0.75-0.627,1.312-0.75,1.688h14.438v2.062h-7.312c0,2.25-0.126,4.189-0.375,5.812
		h9.188v2.25h-9.75v0.188c-0.126,0-0.188,0.064-0.188,0.188c0.375,0.252,0.938,0.627,1.688,1.125
		c2.25,1.377,4.875,3.188,7.875,5.438L39.771,26.281z M26.084,27.969h30.375v19.875h-2.438v-2.062h-25.5v2.062h-2.438V27.969z
		 M28.521,30.219v5.625h25.5v-5.625H28.521z M28.521,38.094v5.438h25.5v-5.438H28.521z M44.271,6.781h16.688v16.875H44.271V6.781z
		 M46.709,9.031v12.375h11.812V9.031H46.709z"/>
	<path d="M88.709,18.594c-0.252-0.375-0.627-0.812-1.125-1.312c-0.627-0.624-1.063-1.125-1.312-1.5
		c-7.125,0.252-12.313,0.501-15.562,0.75c-1.251,0-2.314,0.126-3.188,0.375l-1.125-2.438c0.873-0.498,1.811-1.248,2.812-2.25
		c3-3.249,5.561-6.437,7.688-9.562l2.438,1.125c-3.375,4.251-6.375,7.752-9,10.5c0.498,0,1.312-0.062,2.438-0.188
		c5.124-0.123,9-0.311,11.625-0.562c-1.251-1.5-2.625-2.936-4.125-4.312l1.875-1.5c2.748,2.625,5.625,5.689,8.625,9.188
		L88.709,18.594z M71.646,47.469h-2.438V21.031h17.625v21.562c0.123,3-1.312,4.5-4.312,4.5c-1.377,0-2.877,0-4.5,0
		c0-0.75-0.126-1.564-0.375-2.438c0.375,0,1.061,0,2.062,0c0.999,0.123,1.749,0.188,2.25,0.188c1.749,0,2.561-0.75,2.438-2.25
		v-4.875h-12.75V47.469z M71.646,23.094v5.25h12.75v-5.25H71.646z M71.646,30.406v5.25h12.75v-5.25H71.646z M92.834,26.094h2.438
		v8.062c4.998-1.875,9.75-4.061,14.25-6.562l1.312,2.25c-5.127,2.625-10.312,4.939-15.562,6.938v4.5
		c-0.126,2.124,1.061,3.123,3.562,3h5.438c2.373,0,3.75-0.814,4.125-2.438c0.249-1.125,0.437-2.748,0.562-4.875
		c0.375,0.126,0.873,0.252,1.5,0.375c0.375,0.252,0.686,0.375,0.938,0.375c-0.126,1.251-0.375,2.812-0.75,4.688
		c-0.501,3-2.502,4.436-6,4.312h-6.375c-3.75,0.123-5.563-1.564-5.438-5.062V26.094z M92.834,3.219h2.438v8.812
		c3.624-1.248,8.062-3.311,13.312-6.188l1.5,2.062c-4.5,2.376-9.439,4.626-14.812,6.75v3c-0.126,2.25,1.061,3.313,3.562,3.188h5.438
		c2.25,0,3.562-0.938,3.938-2.812c0.375-0.999,0.624-2.687,0.75-5.062c0.873,0.375,1.688,0.627,2.438,0.75
		c-0.126,1.002-0.313,2.314-0.562,3.938c-0.126,0.501-0.188,0.814-0.188,0.938c-0.627,3.126-2.689,4.626-6.188,4.5h-6
		c-3.876,0.126-5.751-1.562-5.625-5.062V3.219z"/>
	<path d="M114.584,30.219l-0.375-2.812c0.375-0.123,0.938-0.249,1.688-0.375c0.999-0.249,2.687-0.75,5.062-1.5v-11.25h-6v-2.25h6
		V3.406h2.625v8.625h5.062v2.25h-5.062v10.5c1.875-0.624,3.75-1.187,5.625-1.688c0,0.252,0,1.125,0,2.625
		c-0.75,0.252-2.001,0.627-3.75,1.125c-0.876,0.252-1.5,0.439-1.875,0.562v15c0.123,3.123-1.377,4.688-4.5,4.688
		c-1.251,0-2.502,0-3.75,0c0-0.75-0.126-1.626-0.375-2.625c0.75,0.123,1.937,0.188,3.562,0.188c1.749,0.123,2.561-0.688,2.438-2.438
		V28.156c-0.627,0.252-1.688,0.562-3.188,0.938C116.394,29.594,115.334,29.969,114.584,30.219z M128.834,28.156h7.125
		c0-0.999,0-1.998,0-3V14.844h-4.688v-2.25h15.563c2.124-3.249,4.061-6.437,5.812-9.562l2.438,1.312
		c-0.75,1.251-2.062,3.313-3.938,6.188c-0.627,0.876-1.125,1.564-1.5,2.062h8.438v2.25h-5.625v13.312h7.125v2.438h-7.125v17.25
		h-2.625v-17.25h-11.438c-0.126,7.251-3.064,13.061-8.812,17.438c-0.126-0.126-0.439-0.439-0.938-0.938
		c-0.501-0.375-0.876-0.688-1.125-0.938c5.499-3.873,8.312-9.062,8.438-15.562h-7.125V28.156z M134.459,4.531l1.875-1.312
		c1.248,1.251,3,3.188,5.25,5.812c-0.126-0.123,0,0.064,0.375,0.562l-2.062,1.5c-0.501-0.498-1.125-1.312-1.875-2.438
		C137.52,8.032,136.334,6.658,134.459,4.531z M138.584,25.156c0,1.125,0,2.127,0,3h11.25V14.844h-11.25V25.156z"/>
	<path d="M173.647,13.344l2.062-1.312c0.624,0.627,1.436,1.564,2.438,2.812c0.75,0.876,1.312,1.564,1.688,2.062l-2.062,1.312h12.188
		c1.5-2.124,2.936-4.248,4.312-6.375l2.438,1.5c-0.126,0.126-0.313,0.375-0.562,0.75c-1.377,1.752-2.502,3.126-3.375,4.125h14.625
		v2.438h-44.812v-2.438h15C176.333,16.469,175.021,14.844,173.647,13.344z M182.459,3.594l2.438-0.938
		c0.375,0.501,0.873,1.312,1.5,2.438c0.624,1.002,1.061,1.813,1.312,2.438l-2.062,0.938h19.5v2.25h-40.125v-2.25h20.062
		c-0.375-0.873-1.002-2.062-1.875-3.562C182.834,4.282,182.582,3.845,182.459,3.594z M168.397,25.719h33v21.938h-2.625v-2.812
		h-27.75v3h-2.625V25.719z M171.022,27.969v6.562h27.75v-6.562H171.022z M171.022,36.594v6h27.75v-6H171.022z"/>
	<path d="M210.584,10.156h4.688c0.249-0.75,0.562-1.937,0.938-3.562c0.375-1.5,0.624-2.625,0.75-3.375l2.438,0.375
		c-0.501,2.25-1.063,4.438-1.688,6.562h8.438v2.25h-9.188c-0.627,2.625-1.688,6.313-3.188,11.062
		c-0.252,0.75-0.439,1.312-0.562,1.688h5.25v-7.5h2.25v7.5h4.312v2.062h-4.312v8.438c0.624-0.123,1.5-0.249,2.625-0.375
		c1.125-0.249,1.937-0.375,2.438-0.375c-0.126,0.375-0.188,1.125-0.188,2.25c-1.752,0.126-3.375,0.375-4.875,0.75v9.938h-2.25v-9.75
		c-2.502,0.501-5.062,0.938-7.688,1.312l-0.375-2.438c1.5-0.123,3.873-0.375,7.125-0.75c-2.127,0.252-1.813,0.188,0.938-0.188
		v-8.812h-7.5v-2.25c0.999-2.874,2.25-7.061,3.75-12.562h-4.125V10.156z M254.459,18.219c-6.252-3-11.001-6.873-14.25-11.625
		c-3.126,4.626-7.813,8.751-14.062,12.375c-0.501-0.624-1.063-1.312-1.688-2.062c7.125-3.75,12.249-8.438,15.375-14.062l2.625,0.375
		c-0.252,0.375-0.562,0.876-0.938,1.5c3.624,5.127,8.373,8.877,14.25,11.25c-0.126,0.252-0.313,0.562-0.562,0.938
		C254.834,17.407,254.582,17.844,254.459,18.219z M229.897,47.844h-2.25V21.406h11.625v21.75c0.123,2.748-1.312,4.187-4.312,4.312
		c-1.002,0-1.939,0-2.812,0c0-0.75-0.126-1.5-0.375-2.25c0.999,0,1.937,0,2.812,0c1.749,0.123,2.561-0.688,2.438-2.438v-5.062
		h-7.125V47.844z M229.897,23.656v4.875h7.125v-4.875H229.897z M229.897,30.594v5.062h7.125v-5.062H229.897z M232.709,14.844h14.812
		v2.25h-14.812V14.844z M250.897,20.656h2.438v21.75c0.123,3.249-1.688,4.875-5.438,4.875c-1.251,0-2.438,0-3.562,0
		c0-0.75-0.126-1.564-0.375-2.438c1.248,0.123,2.625,0.188,4.125,0.188c1.998,0.123,2.936-0.876,2.812-3V20.656z M243.959,23.094
		h2.25v16.5h-2.25V23.094z"/>
	<path d="M271.897,5.469l1.875-1.688c3.999,3,7.688,8.376,11.062,16.125c4.875,11.625,11.186,19.5,18.938,23.625
		c-0.75,0.999-1.5,1.937-2.25,2.812c-7.752-5.25-14.001-13.562-18.75-24.938c-0.126-0.375-0.375-0.873-0.75-1.5
		c-0.126-0.498-0.562-1.374-1.312-2.625c-3.75,12.501-10.5,22.251-20.25,29.25c-0.75-1.125-1.438-1.875-2.062-2.25
		c10.125-6.75,16.998-16.875,20.625-30.375C276.895,10.282,274.522,7.469,271.897,5.469z"/>
</g>
</svg>
