<?xml version="1.0" encoding="utf-8"?>
<!-- Generator: Adobe Illustrator 17.0.0, SVG Export Plug-In . SVG Version: 6.00 Build 0)  -->
<!DOCTYPE svg PUBLIC "-//W3C//DTD SVG 1.1//EN" "http://www.w3.org/Graphics/SVG/1.1/DTD/svg11.dtd">
<svg version="1.1" id="图层_1" xmlns="http://www.w3.org/2000/svg" xmlns:xlink="http://www.w3.org/1999/xlink" x="0px" y="0px"
	 width="289.44px" height="53.812px" viewBox="0 0 289.44 53.812" enable-background="new 0 0 289.44 53.812" xml:space="preserve">
<g enable-background="new    ">
	<path d="M8.437,22.5c-1.875-1.623-4.189-3.498-6.938-5.625L3.187,15c0.873,0.627,2.062,1.5,3.562,2.625
		c1.623,1.251,2.812,2.188,3.562,2.812L8.437,22.5z M5.437,46.687L2.625,45.75c2.25-7.623,3.812-13.187,4.688-16.688
		c0.249,0.126,0.686,0.313,1.312,0.562c0.498,0.252,0.873,0.439,1.125,0.562C8.625,33.937,7.186,39.439,5.437,46.687z M9.937,10.5
		c-1.002-0.999-2.502-2.373-4.5-4.125c-1.002-0.873-1.752-1.562-2.25-2.062l1.688-1.688C5.124,2.877,5.56,3.252,6.187,3.75
		c2.499,2.001,4.374,3.562,5.625,4.688L9.937,10.5z M12.937,16.875C12.685,16.5,12.123,15.876,11.25,15
		c4.248-4.125,7.374-8.625,9.375-13.5l2.438,0.562c-0.75,1.5-1.5,2.938-2.25,4.312h25.125v2.25H19.312
		C17.56,11.376,15.436,14.127,12.937,16.875z M14.812,39.562l1.5-11.812h-4.688V25.5H16.5L18,13.687h24.188
		c0,4.125-0.064,8.062-0.188,11.812h4.875v2.25h-5.062c0,1.251-0.064,3-0.188,5.25c0,2.001,0,3.439,0,4.312h3.75v2.25h-3.938
		c-0.126,4.5-2.563,6.75-7.312,6.75c-1.875,0-3.814,0-5.812,0c-0.126-0.876-0.313-1.813-0.562-2.812
		c1.875,0.123,3.812,0.188,5.812,0.188c3.498,0.123,5.312-1.251,5.438-4.125H14.812z M39,37.312
		c0.249-3.999,0.375-7.187,0.375-9.562H18.75l-1.125,9.562H39z M20.25,15.937L19.125,25.5h20.25
		c0.123-2.499,0.188-5.687,0.188-9.562H20.25z M25.312,31.312l1.5-1.5c1.875,1.251,3.686,2.689,5.438,4.312l-1.5,1.688
		C28.998,34.063,27.187,32.563,25.312,31.312z M25.875,19.125l1.5-1.5c1.623,1.125,3.498,2.563,5.625,4.312l-1.688,1.688
		C29.812,22.002,27.999,20.502,25.875,19.125z"/>
	<path d="M54.937,23.062h34.125v12.375H73.125v3.188h17.812V40.5H73.125v2.812h21.562v1.875H49.312v-1.875h21.562V40.5H53.062
		v-1.875h17.812v-3.188H54.937V23.062z M49.687,18.375H94.5v1.688H49.687V18.375z M54.562,4.125H89.25v11.25H54.562V4.125z
		 M57,5.812v3h30v-3H57z M57,10.5v3.188h30V10.5H57z M57.375,24.75v3.562h13.5V24.75H57.375z M57.375,30v3.562h13.5V30H57.375z
		 M86.625,24.75h-13.5v3.562h13.5V24.75z M73.125,30v3.562h13.5V30H73.125z"/>
	<path d="M97.687,19.125h7.125V2.25h2.25v16.875h6.375v2.25h-6.375v5.812l1.688-1.312c0.123,0.126,0.249,0.252,0.375,0.375
		c2.625,3.252,4.374,5.502,5.25,6.75l-2.062,1.5c-0.75-0.999-1.813-2.499-3.188-4.5c-1.002-1.248-1.688-2.124-2.062-2.625V46.5
		h-2.25V26.437c-1.626,5.127-3.75,9.501-6.375,13.125c-0.126-0.375-0.375-0.873-0.75-1.5c-0.252-0.498-0.439-0.812-0.562-0.938
		c3.375-4.374,5.874-9.624,7.5-15.75h-6.938V19.125z M97.5,7.312l2.062-0.75c1.374,3.126,2.561,6.064,3.562,8.812l-2.062,0.75
		c-0.126-0.249-0.252-0.624-0.375-1.125C99.436,11.877,98.373,9.313,97.5,7.312z M110.625,16.125l-2.062-0.75
		c1.374-3,2.625-5.936,3.75-8.812l2.062,0.75C113.25,10.063,111.999,13.002,110.625,16.125z M117,12.375h9.938V8.437h-11.25V6.375
		h11.25v-4.5h2.438v4.5h12.75v2.062h-12.75v3.938h11.438v2.062h-11.438v4.125h13.312v2.062h-27.75v-2.062h12v-4.125H117V12.375z
		 M119.25,46.687h-2.438v-22.5H139.5V41.25c0.123,3.375-1.5,4.998-4.875,4.875c-0.501,0-1.438,0-2.812,0
		c-1.377,0.123-2.376,0.188-3,0.188c0-1.002-0.188-1.875-0.562-2.625c1.374,0.123,3.311,0.188,5.812,0.188
		c2.25,0.123,3.311-0.75,3.188-2.625v-2.812h-18V46.687z M119.25,26.25v4.125h18V26.25H119.25z M119.25,32.25v4.125h18V32.25H119.25
		z"/>
	<path d="M166.875,28.125h2.625c-0.126,1.377-0.375,2.625-0.75,3.75h20.438v2.25h-18.75c2.499,5.25,9.062,8.499,19.688,9.75
		c-0.501,0.75-1.002,1.562-1.5,2.438C177.123,44.311,170.25,40.5,168,34.875c-1.626,5.751-8.625,9.812-21,12.188
		c-0.501-0.627-1.002-1.438-1.5-2.438c12-2.127,18.686-5.625,20.062-10.5h-18.75v-2.25h19.5
		C166.562,30.75,166.749,29.502,166.875,28.125z M149.813,16.312h16.875v-5.438h-19.125V8.812h24.562
		c0.249-0.249,0.562-0.562,0.938-0.938c2.874-3.123,4.688-5.186,5.438-6.188L180.75,3c-0.501,0.627-1.377,1.564-2.625,2.812
		c-1.377,1.377-2.314,2.376-2.812,3h13.125v2.062h-19.125v5.438h16.875v2.062h-16.875v5.438h20.438v2.25h-43.5v-2.25h20.438v-5.438
		h-16.875V16.312z M155.438,2.812L157.5,1.5c2.499,2.25,4.374,4.002,5.625,5.25l-2.25,1.688C159,6.313,157.187,4.438,155.438,2.812z
		"/>
	<path d="M216.563,1.687h2.625v5.625H237l-0.938,9.75c-1.002-0.123-1.875-0.188-2.625-0.188l0.75-7.125h-15v10.875h14.062v2.812
		c-2.877,5.625-6.938,10.377-12.188,14.25C225.311,40.063,231.123,42,238.5,43.5c-0.627,0.999-1.125,1.937-1.5,2.812
		c-7.251-2.001-13.312-4.377-18.188-7.125c-4.626,2.874-10.377,5.499-17.25,7.875c-0.126-0.126-0.252-0.313-0.375-0.562
		c-0.501-0.876-0.938-1.564-1.312-2.062c6.498-1.875,12.062-4.125,16.688-6.75c-4.875-3.75-8.625-8.625-11.25-14.625H201
		c0.123,9.75-1.813,17.563-5.812,23.438c-0.501-0.75-1.251-1.377-2.25-1.875c3.873-4.998,5.687-12.812,5.438-23.438V7.312h18.188
		V1.687z M201,9.75v10.875h15.562V9.75H201z M230.625,23.062h-22.688c2.874,5.751,6.498,10.063,10.875,12.938
		C224.063,32.25,228,27.937,230.625,23.062z"/>
	<path d="M244.313,4.312h12.562v37.125c0.123,3-1.312,4.5-4.312,4.5c-1.125,0-2.188,0-3.188,0c0-0.75-0.126-1.564-0.375-2.438
		c0.75,0,1.811,0,3.188,0c1.623,0.123,2.373-0.627,2.25-2.25V30.187h-7.688c0,7.125-1.251,12.562-3.75,16.312
		c-0.75-0.501-1.5-0.938-2.25-1.312c2.625-3,3.812-8.625,3.562-16.875V4.312z M246.75,6.562v9.562h7.688V6.562H246.75z
		 M246.75,18.375v9.562h7.688v-9.562H246.75z M271.5,2.25h2.438c0,2.877,0,5.625,0,8.25h10.875v2.25h-10.875
		c-0.126,4.125-0.313,7.564-0.562,10.312h13.312v2.25h-12.562c1.875,8.502,6.123,14.689,12.75,18.562
		c-0.75,0.624-1.377,1.374-1.875,2.25c-7.125-4.626-11.314-10.998-12.562-19.125c-1.251,8.376-5.563,14.874-12.938,19.5
		c-0.501-0.75-1.125-1.5-1.875-2.25c7.623-4.875,11.936-11.186,12.938-18.938H259.5v-2.25h11.25c0.375-3,0.562-6.437,0.562-10.312
		h-10.5V10.5H271.5C271.5,8.127,271.5,5.376,271.5,2.25z"/>
</g>
</svg>
