<?xml version="1.0" encoding="utf-8"?>
<!-- Generator: Adobe Illustrator 17.0.0, SVG Export Plug-In . SVG Version: 6.00 Build 0)  -->
<!DOCTYPE svg PUBLIC "-//W3C//DTD SVG 1.1//EN" "http://www.w3.org/Graphics/SVG/1.1/DTD/svg11.dtd">
<svg version="1.1" id="图层_1" xmlns="http://www.w3.org/2000/svg" xmlns:xlink="http://www.w3.org/1999/xlink" x="0px" y="0px"
	 width="289.44px" height="53.812px" viewBox="0 0 289.44 53.812" enable-background="new 0 0 289.44 53.812" xml:space="preserve">
<g enable-background="new    ">
	<path d="M44.625,23.812c-9-4.749-15.75-10.5-20.25-17.25c-5.25,7.377-12.313,13.438-21.188,18.188
		c-0.876-1.125-1.5-1.875-1.875-2.25c10.5-5.625,18.123-12.437,22.875-20.438l2.625,0.562L25.687,4.5
		c5.124,7.125,12.062,12.814,20.812,17.062c-0.126,0.252-0.439,0.627-0.938,1.125C45.061,23.188,44.748,23.563,44.625,23.812z
		 M22.687,18.937h2.625v27.75h-2.625V18.937z"/>
	<path d="M51.187,12.75l2.438,0.375c-0.126,0.501-0.252,1.377-0.375,2.625c-0.252,1.626-0.75,4.377-1.5,8.25
		c-0.75-0.249-1.564-0.375-2.438-0.375C50.185,19.875,50.812,16.251,51.187,12.75z M55.875,1.875H58.5v45h-2.625V1.875z
		 M59.062,11.062l1.875-1.125c1.374,1.752,2.687,3.75,3.938,6l-2.062,1.312c-0.375-0.75-0.938-1.688-1.688-2.812
		C60.249,12.937,59.56,11.812,59.062,11.062z M78.562,1.875H81v10.5h12.375v2.25H81v12.188h11.438v2.438H81v12.938h13.688v2.438
		h-31.5v-2.438h15.375V29.25H66.375v-2.438h12.188V14.625h-8.625c-1.002,2.877-2.188,5.625-3.562,8.25
		c-0.876-0.498-1.688-0.938-2.438-1.312c2.874-5.25,4.937-10.749,6.188-16.5l2.625,0.562c-0.252,0.876-0.627,2.127-1.125,3.75
		c-0.375,1.377-0.627,2.376-0.75,3h7.688V1.875z"/>
	<path d="M97.5,29.625l-0.375-2.812c0.249-0.123,0.686-0.249,1.312-0.375c2.499-0.75,4.436-1.248,5.812-1.5v-12H97.5v-2.25h6.75
		V2.062h2.438v8.625h6.375v2.25h-6.375v11.25c2.124-0.624,4.125-1.187,6-1.688c-0.126,0.252-0.126,0.876,0,1.875
		c0,0.252,0,0.439,0,0.562c-0.252,0.126-0.688,0.252-1.312,0.375c-1.002,0.252-2.563,0.75-4.688,1.5v14.25
		c0.123,3.249-1.377,4.875-4.5,4.875c-1.5,0-2.689,0-3.562,0c-0.126-1.002-0.375-1.875-0.75-2.625c0.999,0,2.25,0,3.75,0
		c1.875,0.123,2.748-0.627,2.625-2.25v-13.5C101.874,28.189,99.624,28.875,97.5,29.625z M119.062,12v10.125
		c0,6.126-0.501,10.875-1.5,14.25c-0.876,3.252-2.751,6.686-5.625,10.312c-0.75-0.75-1.5-1.312-2.25-1.688
		c2.748-3.126,4.562-6.311,5.438-9.562c0.999-3.123,1.5-7.623,1.5-13.5V9.562h13.688c-1.377-2.625-2.502-4.811-3.375-6.562
		l2.438-0.938c1.125,1.875,2.312,4.063,3.562,6.562l-2.062,0.938h11.812V12H119.062z"/>
	<path d="M188.813,45.562c-11.127-2.502-18.375-7.5-21.75-15h-5.625v12.75l9.188-2.812c0,0.627,0,1.374,0,2.25
		c-3.876,1.248-6.562,2.186-8.062,2.812c-0.126,0-0.313,0.062-0.562,0.188c-1.377,0.498-2.188,0.873-2.438,1.125l-1.688-2.25
		c0.75-0.627,1.125-1.752,1.125-3.375V30.562h-6.75c-0.375,6.375-2.001,11.687-4.875,15.938c-0.126-0.126-0.439-0.375-0.938-0.75
		c-0.627-0.501-1.002-0.814-1.125-0.938c1.998-3,3.311-5.936,3.938-8.812c0.624-2.874,0.938-7.436,0.938-13.688V4.125h37.125v9.75
		h-34.688v6.562c0,3.75-0.064,6.375-0.188,7.875h10.688v-6h-7.688v-2.25h7.688v-4.125h2.438v4.125h10.688v-4.125h2.438v4.125h8.812
		v2.25h-8.812v6h11.062v2.25h-20.062c1.875,3.126,3.75,5.376,5.625,6.75c4.998-2.25,8.25-3.812,9.75-4.688l1.312,2.062
		c-3.375,1.752-6.375,3.126-9,4.125c2.748,1.752,7.061,3.249,12.938,4.5c-0.252,0.375-0.627,0.938-1.125,1.688
		C189.062,45.249,188.936,45.436,188.813,45.562z M152.625,6.375v5.25h32.25v-5.25H152.625z M165.563,22.312v6h10.688v-6H165.563z"
		/>
	<path d="M194.063,38.437l-0.75-2.625c2.373-0.624,5.124-1.312,8.25-2.062V10.312h-7.875V7.875h17.625v2.438h-7.125V33
		c1.998-0.498,4.374-1.125,7.125-1.875c0,0.501,0.123,1.377,0.375,2.625C207.812,34.752,201.938,36.313,194.063,38.437z
		 M212.25,11.812h6.562C218.936,9.562,219,6.375,219,2.25h2.625c0,4.251-0.064,7.438-0.188,9.562h15
		c-0.252,10.752-0.562,19.626-0.938,26.625c0,4.875-2.563,7.248-7.688,7.125c-1.251,0.123-3.501,0.188-6.75,0.188
		c-0.126-0.501-0.252-1.125-0.375-1.875c-0.126-0.375-0.188-0.688-0.188-0.938c1.374,0.123,3.75,0.188,7.125,0.188
		c3.498,0.123,5.25-1.377,5.25-4.5c0.375-5.625,0.686-13.749,0.938-24.375H221.25c0,0.501,0,1.251,0,2.25
		c-0.126,1.002-0.188,1.752-0.188,2.25c-0.501,12.75-5.25,22.063-14.25,27.938c-0.252-0.252-0.688-0.688-1.312-1.312
		c-0.501-0.375-0.814-0.627-0.938-0.75c8.874-4.998,13.5-13.688,13.875-26.062c0-0.375,0-0.938,0-1.688
		c0.123-1.125,0.188-1.998,0.188-2.625h-6.375V11.812z"/>
	<path d="M263.625,17.437c-0.252-0.375-0.627-0.812-1.125-1.312c-0.627-0.624-1.063-1.125-1.312-1.5
		c-7.125,0.252-12.313,0.501-15.562,0.75c-1.251,0-2.314,0.126-3.188,0.375l-1.125-2.438c0.873-0.498,1.811-1.248,2.812-2.25
		c3-3.249,5.561-6.437,7.688-9.562l2.438,1.125c-3.375,4.251-6.375,7.752-9,10.5c0.498,0,1.312-0.062,2.438-0.188
		c5.124-0.123,9-0.311,11.625-0.562c-1.251-1.5-2.625-2.936-4.125-4.312l1.875-1.5c2.748,2.625,5.625,5.689,8.625,9.188
		L263.625,17.437z M246.563,46.312h-2.438V19.875h17.625v21.562c0.123,3-1.312,4.5-4.312,4.5c-1.377,0-2.877,0-4.5,0
		c0-0.75-0.126-1.564-0.375-2.438c0.375,0,1.061,0,2.062,0c0.999,0.123,1.749,0.188,2.25,0.188c1.749,0,2.561-0.75,2.438-2.25
		v-4.875h-12.75V46.312z M246.563,21.937v5.25h12.75v-5.25H246.563z M246.563,29.25v5.25h12.75v-5.25H246.563z M267.75,24.937h2.438
		V33c4.998-1.875,9.75-4.061,14.25-6.562l1.312,2.25c-5.127,2.625-10.312,4.939-15.562,6.938v4.5c-0.126,2.124,1.061,3.123,3.562,3
		h5.438c2.373,0,3.75-0.814,4.125-2.438c0.249-1.125,0.437-2.748,0.562-4.875c0.375,0.126,0.873,0.252,1.5,0.375
		c0.375,0.252,0.686,0.375,0.938,0.375c-0.126,1.251-0.375,2.812-0.75,4.688c-0.501,3-2.502,4.436-6,4.312h-6.375
		c-3.75,0.123-5.563-1.564-5.438-5.062V24.937z M267.75,2.062h2.438v8.812c3.624-1.248,8.062-3.311,13.312-6.188L285,6.75
		c-4.5,2.376-9.439,4.626-14.812,6.75v3c-0.126,2.25,1.061,3.313,3.562,3.188h5.438c2.25,0,3.562-0.938,3.938-2.812
		c0.375-0.999,0.624-2.687,0.75-5.062c0.873,0.375,1.688,0.627,2.438,0.75c-0.126,1.002-0.313,2.314-0.562,3.938
		c-0.126,0.501-0.188,0.814-0.188,0.938c-0.627,3.126-2.689,4.626-6.188,4.5h-6c-3.876,0.126-5.751-1.562-5.625-5.062V2.062z"/>
</g>
</svg>
